{
  "source": "C:\\Users\\Peter\\Desktop\\stuff\\MIUN\\quantitative_research\\video_compression\\videos\\BVI-HD\\BVI-HD_CDVL_videos\\ORIG\\BallUnderWater_1920x1080_60fps.mp4",
  "output": "C:\\Users\\Peter\\Desktop\\stuff\\MIUN\\quantitative_research\\video_compression\\compressed_videos\\BVI-HD\\h264\\1\\BallUnderWater_1920x1080_60fps_h264.mp4",
  "codec": "h264",
  "ok": "Input #0, mov,mp4,m4a,3gp,3g2,mj2, from 'C:\\Users\\Peter\\Desktop\\stuff\\MIUN\\quantitative_research\\video_compression\\videos\\BVI-HD\\BVI-HD_CDVL_videos\\ORIG\\BallUnderWater_1920x1080_60fps.mp4':\n  Metadata:\n    major_brand     : isom\n    minor_version   : 512\n    compatible_brands: isomiso2avc1mp41\n    encoder         : Lavf54.28.101\n  Duration: 00:00:05.00, start: 0.000000, bitrate: 212030 kb/s\n  Stream #0:0[0x1](und): Video: h264 (High 4:4:4 Predictive) (avc1 / 0x31637661), yuv420p(progressive), 1920x1080, 212025 kb/s, 60 fps, 60 tbr, 60 tbn (default)\n    Metadata:\n      handler_name    : VideoHandler\n      vendor_id       : [0][0][0][0]\n[out#0/mp4 @ 0000026d41d81700] Codec AVOption b:a (set bitrate (in bits/s)) has not been used for any stream. The most likely reason is either wrong type (e.g. a video option with no video streams) or that it is a private option of some decoder which was not actually used for any stream.\nStream mapping:\n  Stream #0:0 -> #0:0 (h264 (native) -> h264 (libx264))\nPress [q] to stop, [?] for help\n[libx264 @ 0000026d4234eb80] using cpu capabilities: MMX2 SSE2Fast SSSE3 SSE4.2 AVX FMA3 BMI2 AVX2\n[libx264 @ 0000026d4234eb80] profile High, level 5.0, 4:2:0, 8-bit\n[libx264 @ 0000026d4234eb80] 264 - core 165 r3222 b35605a - H.264/MPEG-4 AVC codec - Copyleft 2003-2025 - http://www.videolan.org/x264.html - options: cabac=1 ref=5 deblock=1:0:0 analyse=0x3:0x113 me=hex subme=8 psy=1 psy_rd=1.00:0.00 mixed_ref=1 me_range=16 chroma_me=1 trellis=2 8x8dct=1 cqm=0 deadzone=21,11 fast_pskip=1 chroma_qp_offset=-2 threads=18 lookahead_threads=3 sliced_threads=0 nr=0 decimate=1 interlaced=0 bluray_compat=0 constrained_intra=0 bframes=3 b_pyramid=2 b_adapt=1 b_bias=0 direct=3 weightb=1 open_gop=0 weightp=2 keyint=250 keyint_min=25 scenecut=40 intra_refresh=0 rc_lookahead=50 rc=cbr mbtree=1 bitrate=1000 ratetol=1.0 qcomp=0.60 qpmin=0 qpmax=69 qpstep=4 vbv_maxrate=1000 vbv_bufsize=1000 nal_hrd=none filler=0 ip_ratio=1.40 aq=1:1.00\nOutput #0, mp4, to 'C:\\Users\\Peter\\Desktop\\stuff\\MIUN\\quantitative_research\\video_compression\\compressed_videos\\BVI-HD\\h264\\1\\BallUnderWater_1920x1080_60fps_h264.mp4':\n  Metadata:\n    major_brand     : isom\n    minor_version   : 512\n    compatible_brands: isomiso2avc1mp41\n    encoder         : Lavf62.3.100\n  Stream #0:0(und): Video: h264 (avc1 / 0x31637661), yuv420p(tv, progressive), 1920x1080, q=2-31, 1000 kb/s, 60 fps, 15360 tbn (default)\n    Metadata:\n      encoder         : Lavc62.11.100 libx264\n      handler_name    : VideoHandler\n      vendor_id       : [0][0][0][0]\n    Side data:\n      cpb: bitrate max/min/avg: 1000000/0/1000000 buffer size: 1000000 vbv_delay: N/A\nframe=    0 fps=0.0 q=0.0 size=       0KiB time=N/A bitrate=N/A speed=N/A elapsed=0:00:00.51    \nframe=    0 fps=0.0 q=0.0 size=       0KiB time=N/A bitrate=N/A speed=N/A elapsed=0:00:01.57    \nframe=    0 fps=0.0 q=0.0 size=       0KiB time=N/A bitrate=N/A speed=N/A elapsed=0:00:02.15    \nframe=    0 fps=0.0 q=0.0 size=       0KiB time=N/A bitrate=N/A speed=N/A elapsed=0:00:03.06    \nframe=    0 fps=0.0 q=0.0 size=       0KiB time=N/A bitrate=N/A speed=N/A elapsed=0:00:03.72    \nframe=    6 fps=1.4 q=51.0 size=       0KiB time=00:00:00.06 bitrate=   5.8kbits/s speed=0.015x elapsed=0:00:04.43    \nframe=    8 fps=1.5 q=51.0 size=       0KiB time=00:00:00.10 bitrate=   3.8kbits/s speed=0.0189x elapsed=0:00:05.28    \nframe=   11 fps=1.9 q=51.0 size=       0KiB time=00:00:00.15 bitrate=   2.6kbits/s speed=0.0252x elapsed=0:00:05.94    \nframe=   15 fps=2.3 q=51.0 size=       0KiB time=00:00:00.20 bitrate=   1.9kbits/s speed=0.0305x elapsed=0:00:06.54    \nframe=   41 fps=5.6 q=51.0 size=       0KiB time=00:00:00.51 bitrate=   0.7kbits/s speed=0.071x elapsed=0:00:07.27    \nframe=   53 fps=6.5 q=51.0 size=       0KiB time=00:00:00.85 bitrate=   0.5kbits/s speed=0.104x elapsed=0:00:08.17    \nframe=   59 fps=6.7 q=50.0 size=       0KiB time=00:00:00.95 bitrate=   0.4kbits/s speed=0.108x elapsed=0:00:08.76    \nframe=   60 fps=6.5 q=49.0 size=       0KiB time=00:00:00.96 bitrate=   0.4kbits/s speed=0.104x elapsed=0:00:09.28    \nframe=   62 fps=6.3 q=50.0 size=       0KiB time=00:00:01.00 bitrate=   0.4kbits/s speed=0.102x elapsed=0:00:09.80    \nframe=   65 fps=6.3 q=50.0 size=       0KiB time=00:00:01.05 bitrate=   0.4kbits/s speed=0.101x elapsed=0:00:10.36    \nframe=   69 fps=6.3 q=50.0 size=       0KiB time=00:00:01.11 bitrate=   0.3kbits/s speed=0.103x elapsed=0:00:10.87    \nframe=   74 fps=6.5 q=50.0 size=       0KiB time=00:00:01.20 bitrate=   0.3kbits/s speed=0.105x elapsed=0:00:11.39    \nframe=   82 fps=6.9 q=49.0 size=       0KiB time=00:00:01.31 bitrate=   0.3kbits/s speed=0.11x elapsed=0:00:11.92    \nframe=   89 fps=7.1 q=49.0 size=       0KiB time=00:00:01.45 bitrate=   0.3kbits/s speed=0.115x elapsed=0:00:12.61    \nframe=   97 fps=7.4 q=49.0 size=       0KiB time=00:00:01.58 bitrate=   0.2kbits/s speed=0.12x elapsed=0:00:13.18    \nframe=  102 fps=7.4 q=49.0 size=       0KiB time=00:00:01.66 bitrate=   0.2kbits/s speed=0.122x elapsed=0:00:13.71    \nframe=  109 fps=7.6 q=49.0 size=       0KiB time=00:00:01.75 bitrate=   0.2kbits/s speed=0.122x elapsed=0:00:14.32    \nframe=  116 fps=7.7 q=49.0 size=       0KiB time=00:00:01.86 bitrate=   0.2kbits/s speed=0.123x elapsed=0:00:15.15    \nframe=  122 fps=7.7 q=49.0 size=       0KiB time=00:00:02.00 bitrate=   0.2kbits/s speed=0.126x elapsed=0:00:15.82    \nframe=  129 fps=7.9 q=50.0 size=     256KiB time=00:00:02.11 bitrate= 991.0kbits/s speed=0.129x elapsed=0:00:16.35    \nframe=  135 fps=8.0 q=50.0 size=     256KiB time=00:00:02.21 bitrate= 946.3kbits/s speed=0.131x elapsed=0:00:16.91    \nframe=  141 fps=8.1 q=49.0 size=     256KiB time=00:00:02.31 bitrate= 905.4kbits/s speed=0.133x elapsed=0:00:17.47    \nframe=  149 fps=8.2 q=50.0 size=     256KiB time=00:00:02.45 bitrate= 856.1kbits/s speed=0.135x elapsed=0:00:18.09    \nframe=  154 fps=8.3 q=50.0 size=     256KiB time=00:00:02.53 bitrate= 828.0kbits/s speed=0.136x elapsed=0:00:18.60    \nframe=  161 fps=8.4 q=50.0 size=     256KiB time=00:00:02.61 bitrate= 801.6kbits/s speed=0.137x elapsed=0:00:19.13    \nframe=  168 fps=8.5 q=50.0 size=     256KiB time=00:00:02.76 bitrate= 758.1kbits/s speed=0.14x elapsed=0:00:19.82    \nframe=  174 fps=8.5 q=50.0 size=     256KiB time=00:00:02.86 bitrate= 731.7kbits/s speed=0.141x elapsed=0:00:20.39    \nframe=  181 fps=8.6 q=50.0 size=     256KiB time=00:00:02.96 bitrate= 707.0kbits/s speed=0.141x elapsed=0:00:21.04    \nframe=  189 fps=8.7 q=50.0 size=     256KiB time=00:00:03.11 bitrate= 673.0kbits/s speed=0.144x elapsed=0:00:21.66    \nframe=  197 fps=8.9 q=49.0 size=     256KiB time=00:00:03.23 bitrate= 648.7kbits/s speed=0.146x elapsed=0:00:22.21    \nframe=  200 fps=8.7 q=49.0 size=     256KiB time=00:00:03.30 bitrate= 635.6kbits/s speed=0.144x elapsed=0:00:22.92    \nframe=  205 fps=8.7 q=50.0 size=     256KiB time=00:00:03.36 bitrate= 623.0kbits/s speed=0.143x elapsed=0:00:23.50    \nframe=  211 fps=8.7 q=50.0 size=     256KiB time=00:00:03.46 bitrate= 605.1kbits/s speed=0.144x elapsed=0:00:24.11    \nframe=  221 fps=8.9 q=51.0 size=     256KiB time=00:00:03.60 bitrate= 582.6kbits/s speed=0.145x elapsed=0:00:24.90    \nframe=  229 fps=8.9 q=50.0 size=     256KiB time=00:00:03.75 bitrate= 559.3kbits/s speed=0.146x elapsed=0:00:25.67    \nframe=  245 fps=9.3 q=50.0 size=     256KiB time=00:00:04.00 bitrate= 524.4kbits/s speed=0.151x elapsed=0:00:26.41    \nframe=  255 fps=9.4 q=51.0 size=     512KiB time=00:00:04.21 bitrate= 994.8kbits/s speed=0.156x elapsed=0:00:27.10    \nframe=  255 fps=9.2 q=51.0 size=     512KiB time=00:00:04.23 bitrate= 990.9kbits/s speed=0.153x elapsed=0:00:27.62    \nframe=  273 fps=9.7 q=50.0 size=     512KiB time=00:00:04.51 bitrate= 928.7kbits/s speed=0.16x elapsed=0:00:28.27    \nframe=  273 fps=9.4 q=50.0 size=     512KiB time=00:00:04.51 bitrate= 928.7kbits/s speed=0.156x elapsed=0:00:29.01    \nframe=  295 fps=9.9 q=-1.0 size=     512KiB time=00:00:04.88 bitrate= 859.0kbits/s speed=0.165x elapsed=0:00:29.68    \n[mp4 @ 0000026d41d79980] Starting second pass: moving the moov atom to the beginning of the file\n[out#0/mp4 @ 0000026d41d81700] video:615KiB audio:0KiB subtitle:0KiB other streams:0KiB global headers:0KiB muxing overhead: 0.432601%\nframe=  300 fps= 10 q=-1.0 Lsize=     617KiB time=00:00:04.96 bitrate=1018.3kbits/s speed=0.166x elapsed=0:00:29.87    \n[libx264 @ 0000026d4234eb80] frame I:3     Avg QP:42.62  size:  4794\n[libx264 @ 0000026d4234eb80] frame P:238   Avg QP:46.66  size:  2253\n[libx264 @ 0000026d4234eb80] frame B:59    Avg QP:48.52  size:  1325\n[libx264 @ 0000026d4234eb80] consecutive B-frames: 73.3%  0.7%  2.0% 24.0%\n[libx264 @ 0000026d4234eb80] mb I  I16..4: 24.7% 75.3%  0.0%\n[libx264 @ 0000026d4234eb80] mb P  I16..4:  5.3% 23.6%  0.0%  P16..4:  4.4%  0.1%  0.0%  0.0%  0.0%    skip:66.6%\n[libx264 @ 0000026d4234eb80] mb B  I16..4:  0.8%  0.9%  0.0%  B16..8: 13.0%  0.1%  0.0%  direct: 0.3%  skip:84.9%  L0:47.3% L1:51.1% BI: 1.5%\n[libx264 @ 0000026d4234eb80] 8x8 transform intra:80.9% inter:99.4%\n[libx264 @ 0000026d4234eb80] direct mvs  spatial:84.7% temporal:15.3%\n[libx264 @ 0000026d4234eb80] coded y,uvDC,uvAC intra: 0.2% 11.8% 0.1% inter: 0.0% 1.0% 0.0%\n[libx264 @ 0000026d4234eb80] i16 v,h,dc,p: 36% 42%  2% 20%\n[libx264 @ 0000026d4234eb80] i8 v,h,dc,ddl,ddr,vr,hd,vl,hu:  3%  1% 96%  0%  0%  0%  0%  0%  0%\n[libx264 @ 0000026d4234eb80] i8c dc,h,v,p: 97%  2%  0%  0%\n[libx264 @ 0000026d4234eb80] Weighted P-Frames: Y:5.9% UV:2.1%\n[libx264 @ 0000026d4234eb80] ref P L0: 50.4%  1.5% 21.9%  9.3%  8.5%  7.9%  0.4%\n[libx264 @ 0000026d4234eb80] ref B L0: 69.9% 18.3%  8.9%  2.9%\n[libx264 @ 0000026d4234eb80] ref B L1: 88.3% 11.7%\n[libx264 @ 0000026d4234eb80] kb/s:1005.90\n",
  "seconds": 33.087318658828735,
  "probe_out": {}
}